<?xml version="1.0" standalone="no"?>
<!DOCTYPE svg PUBLIC "-//W3C//DTD SVG 20010904//EN"
 "http://www.w3.org/TR/2001/REC-SVG-20010904/DTD/svg10.dtd">
<svg version="1.0" xmlns="http://www.w3.org/2000/svg"
 width="300.000000pt" height="300.000000pt" viewBox="0 0 300.000000 300.000000"
 preserveAspectRatio="xMidYMid meet">
<metadata>
Created by potrace 1.11, written by Peter Selinger 2001-2013
</metadata>
<g transform="translate(0.000000,300.000000) scale(0.100000,-0.100000)"
fill="#000000" stroke="none">
<path d="M0 1500 l0 -1500 1500 0 1500 0 0 1500 0 1500 -1500 0 -1500 0 0
-1500z m1944 570 c158 -393 601 -1505 612 -1533 6 -16 -12 -17 -316 -15 l-322
3 -38 95 -38 95 -311 3 c-171 1 -311 6 -310 10 0 4 28 88 63 187 l63 180 171
3 c95 1 172 5 172 8 0 2 -84 222 -186 487 -102 265 -196 509 -209 542 -12 33
-41 109 -64 169 -22 59 -38 112 -35 117 3 5 134 8 306 7 l300 -3 142 -355z
m-809 213 c3 -15 24 -73 45 -128 95 -246 210 -563 210 -580 0 -15 -48 -164
-288 -887 l-55 -168 -305 0 c-285 0 -304 1 -299 17 10 35 228 622 327 878 21
55 61 163 90 240 28 77 91 246 140 375 49 129 91 245 95 258 9 30 31 28 40 -5z"/>
</g>
</svg>
