<?xml version="1.0" encoding="utf-8" ?>
<svg xmlns="http://www.w3.org/2000/svg" xmlns:xlink="http://www.w3.org/1999/xlink" width="1023" height="1023">
	<path fill="white" transform="scale(1.59938 1.59938)" d="M157.056 151.458L161.562 154.387C167.8 158.368 171.86 166.261 175.477 172.515L171.844 171.172C163.407 168.469 159.692 159.123 157.056 151.458Z"/>
	<path fill="#1A3D57" transform="scale(1.59938 1.59938)" d="M327.532 355.927C336.796 355.321 336.157 367.731 329.135 371.761L328.338 372.039C327.29 372.319 326.244 372.319 325.295 371.768L325 371.588C321.762 369.701 321.688 366.037 322.388 362.622L322.576 361.761C323.243 358.871 325.169 357.398 327.532 355.927Z"/>
	<path fill="white" transform="scale(1.59938 1.59938)" d="M563.518 110.529C568.675 113.42 574.707 119.089 577.139 124.325L577.276 124.624C587.916 146.869 565.996 174.735 542.297 178.405C536.445 179.312 530.649 179.128 524.765 178.763L515.314 177.861C517.861 177.45 520.496 177.615 523.068 177.231C537.78 175.035 554.684 167.145 564.037 155.293L564.307 154.946C575.64 140.624 571.535 124.733 563.518 110.529Z"/>
	<path fill="white" transform="scale(1.59938 1.59938)" d="M328.247 481.506C330.544 483.556 332.391 485.639 334.114 488.19L333.707 488.675C332.668 489.746 330.793 490.694 329.543 491.547L323.545 495.922C302.347 511.468 268.496 534.658 240.658 528.986C238.294 528.257 235.447 528.189 232.973 527.694C237.3 526.986 241.558 527.351 245.958 526.326C270.839 520.528 304.504 500.324 325.047 483.466C326.063 482.632 327.079 482.085 328.247 481.506Z"/>
	<path fill="white" transform="scale(1.59938 1.59938)" d="M182.469 485.111C186.567 484.67 188.696 484.917 191.179 488.655L191.482 489.129C192.355 490.416 192.802 491.587 193.313 493.046C187.218 493.676 181.231 493.296 175.229 494.915C162.735 498.285 151.232 506.227 144.6 517.423C141.54 522.588 142.215 528.945 140.474 534.544L140.327 535C138.465 540.89 132.935 546.999 128.154 550.873L127.764 551.183C126.273 552.387 124.88 553.435 123.023 554.017L122.54 554.163C119.616 555.089 116.383 554.805 113.361 554.656C112.148 554.536 110.709 554.251 109.602 553.738L109.062 553.48C107.37 552.771 104.46 551.426 103.178 550.111C116.804 551.642 129.261 538.419 133.552 526.296C135.725 520.156 136.407 513.832 140.031 508.218L142.27 505.051C150.438 493.163 168.294 486.454 182.469 485.111Z"/>
	<path fill="white" transform="scale(1.59938 1.59938)" d="M429.426 423.726L433.091 426.61C441.658 432.656 447.725 445.875 442.711 455.796C438.568 463.992 431.773 470.638 425.356 477.055C413.915 488.498 395.389 506.748 378.11 507.196C374.298 507.295 370.642 506.572 366.917 505.862L359.375 503.764C358.815 503.611 358.312 503.456 357.736 503.368L357.152 503.281C359.589 502.915 362.171 503.244 364.689 503.005C385.656 501.016 410.59 478.512 425.3 463.125C439.132 448.657 436.224 441.86 429.426 423.726Z"/>
	<path fill="white" transform="scale(1.59938 1.59938)" d="M471.27 134.829L476.347 134.648C478.503 136.649 479.579 138.657 480.647 141.372C476.76 142.599 472.438 142.733 468.438 143.826C453.792 147.826 425.974 160.542 418.968 174.612C416.424 179.72 415.342 185.634 414.019 191.155L372.104 391.423C369.659 402.141 367.737 410.235 363.038 420.156L361.773 422.399C361.213 423.446 360.369 424.19 359.531 425.012L358.847 424.917C357.544 419.909 359.722 410.293 360.613 405.312L405.038 191.384C406.395 185.451 407.66 179.34 409.68 173.594C416.998 152.777 451.324 138.384 471.27 134.829Z"/>
	<path fill="#1A3D57" transform="scale(1.59938 1.59938)" d="M321.637 384.731C332.248 383.547 328.368 397.886 327.664 404.213C325.93 419.803 321.335 449.506 338.265 458.324L338.675 458.533C363.655 471.416 393.859 422.057 403.227 420.148C407.569 419.264 411.848 425.096 409.544 428.945C408.421 430.821 406.709 432.466 405.216 434.043L398.92 440.749C385.043 455.551 367.879 472.832 346.17 473.264C323.576 473.714 313.834 451.285 313.401 431.69C300.468 455.164 278.356 479.672 253.329 489.531C228.046 499.492 215.992 494.208 201.241 473.125C197.298 467.489 191.321 463.719 185.076 461.099C144.486 446.202 106.285 483.721 102.013 522.969C100.333 538.394 88.6708 533.058 90.3127 519.062C95.1958 477.438 134.748 440.29 177.954 446.358C188.601 447.853 201.031 454.501 207.95 462.763C214.516 470.603 217.271 479.507 229.086 481.012L229.531 481.066C232.334 481.441 235.563 481.449 238.365 481.042L238.906 480.958C274.391 475.833 300.871 432.723 312.631 402.714C314.895 396.936 315.685 388.487 321.292 384.944L321.637 384.731Z"/>
	<path fill="#1A3D57" transform="scale(1.59938 1.59938)" d="M459.271 93.2497L459.844 93.1925C477.039 91.8523 493.555 100.512 501.656 115.869C503.548 119.455 505.039 125.466 508.136 128.002C510.704 130.106 516.103 132.375 519.432 131.894L521.562 131.574C536.9 129.398 538.052 96.8739 546.313 113.653C556.87 135.097 513.272 159.807 496.664 132.028C492.373 124.852 490.789 117.373 483.54 112.246C452.648 90.3986 410.466 121.52 389.594 144.119C380.619 153.837 379.499 155.856 376.135 168.779L341.564 330.938C340.478 336.439 340.056 343.28 333.281 344.391C324.523 341.908 329.599 329.853 330.842 323.828L361.69 178.037C360.08 178.851 358.52 180.54 357.117 181.739L348.447 189.092C339.108 196.803 329.633 203.77 318.891 209.416C294.284 220.992 283.076 215.195 285.725 186.944L289.405 160.925C277.948 170.911 264.542 180.664 251.136 187.707C221.715 203.166 177.887 210.862 149.201 190.544C139.897 183.955 132.184 173.548 130.297 162.146C129.496 157.311 128.949 143.799 137.465 148.216C142.648 150.904 141.94 160.131 143.774 165.156C150.772 184.328 173.52 190.412 191.863 190.31C225.129 190.125 257.072 173.878 280.803 151.17C285.468 146.706 288.918 142.316 295.08 140.004L297.634 141.196C306.654 146.443 301.244 167.657 300.164 175.786L298.333 193.75C298.152 196.228 296.754 201.903 299.688 203.358C320.21 199.23 343.469 179.207 357.382 164.3L377.292 141.041C398.55 116.81 425.83 95.4949 459.271 93.2497Z"/>
</svg>
